STARTFONT 2.1
FONT -DEC-Present Bullets-Medium-R-Normal--14-140-100-100-P-172-DEC-FontSpecific
SIZE 14 100 100
FONTBOUNDINGBOX 25 17 0 -2

STARTPROPERTIES 22
CHARSET_REGISTRY "DEC"
CHARSET_ENCODING "FontSpecific"
AVERAGE_WIDTH 172
FAMILY_NAME "Present Bullets"
FOUNDRY "DEC"
WEIGHT_NAME "Medium"
SLANT "R"
SETWIDTH_NAME "Normal"
ADD_STYLE_NAME ""
PIXEL_SIZE 14
POINT_SIZE 140
RESOLUTION_X 100
RESOLUTION_Y 100
SPACING "P"
FULL_NAME "Present Bullets"
COPYRIGHT "Copyright 1990, 1991, Digital Equipment Corporation  Created by Loree Nelson, The Artis Consultancy"
WEIGHT 10
X_HEIGHT 13
QUAD_WIDTH 16
DEFAULT_CHAR 32
FONT_DESCENT 3
FONT_ASCENT 16
ENDPROPERTIES

CHARS 59

STARTCHAR space
ENCODING 32
SWIDTH 250 0
DWIDTH 5 0
BBX 0 0 0 0
BITMAP
ENDCHAR

STARTCHAR A
ENCODING 65
SWIDTH 704 0
DWIDTH 13 0
BBX 9 12 0 2
BITMAP
0180
0180
0380
0300
FD80
8780
9680
9480
BC80
9880
8880
FF80
ENDCHAR

STARTCHAR B
ENCODING 66
SWIDTH 616 0
DWIDTH 11 0
BBX 9 14 1 0
BITMAP
0100
0380
0380
0780
0700
0600
0E00
8C00
CC00
D800
F800
7000
7000
3000
ENDCHAR

STARTCHAR C
ENCODING 67
SWIDTH 740 0
DWIDTH 13 0
BBX 9 12 0 1
BITMAP
8000
C000
3000
1800
0600
0180
0300
0600
1800
3000
C000
8000
ENDCHAR

STARTCHAR D
ENCODING 68
SWIDTH 953 0
DWIDTH 17 0
BBX 15 15 1 0
BITMAP
0100
0100
0180
0280
0280
0440
FC7E
4004
2008
1810
0820
0810
1390
1C68
3018
ENDCHAR

STARTCHAR E
ENCODING 69
SWIDTH 1048 0
DWIDTH 19 0
BBX 15 15 1 0
BITMAP
0100
0100
0380
0380
0380
FFFE
7FFC
3FF8
1FF0
0FE0
0FE0
1FF0
1EF0
1830
2008
ENDCHAR

STARTCHAR F
ENCODING 70
SWIDTH 732 0
DWIDTH 13 0
BBX 10 14 0 0
BITMAP
0400
0400
0600
0700
FF00
FF80
FFC0
FFC0
FF80
FF80
FF00
0600
0400
0400
ENDCHAR

STARTCHAR G
ENCODING 71
SWIDTH 732 0
DWIDTH 13 0
BBX 10 14 0 0
BITMAP
0400
0600
0500
FC80
8080
8040
8040
8040
80C0
8080
FD00
0700
0400
0400
ENDCHAR

STARTCHAR H
ENCODING 72
SWIDTH 1000 0
DWIDTH 18 0
BBX 19 1 0 0
BITMAP
FFFFE0
ENDCHAR

STARTCHAR I
ENCODING 73
SWIDTH 787 0
DWIDTH 14 0
BBX 10 13 0 0
BITMAP
E000
F800
3E00
0F00
0700
0380
0380
01C0
01C0
01C0
01C0
01C0
03C0
ENDCHAR

STARTCHAR J
ENCODING 74
SWIDTH 756 0
DWIDTH 14 0
BBX 9 15 1 -2
BITMAP
8000
C180
6180
2300
3200
1E00
0C00
1C00
1400
3600
2200
6300
C300
0100
0100
ENDCHAR

STARTCHAR K
ENCODING 75
SWIDTH 935 0
DWIDTH 17 0
BBX 12 15 1 0
BITMAP
E070
6060
70C0
31C0
1980
1F00
0F00
0600
0F00
1F00
1980
31C0
70C0
6060
E070
ENDCHAR

STARTCHAR L
ENCODING 76
SWIDTH 1000 0
DWIDTH 18 0
BBX 16 13 0 0
BITMAP
7000
FC00
EE00
C900
FCC0
6320
1190
0C4C
0232
019A
00C5
0029
0015
ENDCHAR

STARTCHAR M
ENCODING 77
SWIDTH 1440 0
DWIDTH 26 0
BBX 23 11 0 -1
BITMAP
07FE00
0FFFE0
1FFFF0
3FFFF8
FFF7FE
FFC1FE
FFC1FE
7FE3FC
3FFFF8
3FFFF8
3FFFF8
ENDCHAR

STARTCHAR N
ENCODING 78
SWIDTH 1292 0
DWIDTH 23 0
BBX 18 11 0 0
BITMAP
1FFE00
7FFF80
FFFFC0
FFFFC0
DFFEC0
1CD700
3FFF00
3FFF80
3FFF80
3FFF80
3BFD00
ENDCHAR

STARTCHAR O
ENCODING 79
SWIDTH 1488 0
DWIDTH 27 0
BBX 24 10 1 1
BITMAP
3FFFFF
2C001C
4C03E0
4C1C80
481C80
5F0D00
5CC600
983200
F80F80
F00180
ENDCHAR

STARTCHAR P
ENCODING 80
SWIDTH 1292 0
DWIDTH 23 0
BBX 18 8 0 2
BITMAP
03FFC0
CC2040
F1DFC0
E17800
FEFC00
E0FC00
E0F800
DFF000
ENDCHAR

STARTCHAR Q
ENCODING 81
SWIDTH 844 0
DWIDTH 15 0
BBX 11 12 0 1
BITMAP
3000
1800
1800
0C00
8E00
FFE0
FFE0
8E00
0C00
1800
1800
3000
ENDCHAR

STARTCHAR R
ENCODING 82
SWIDTH 1195 0
DWIDTH 22 0
BBX 14 12 0 0
BITMAP
1FF0
3010
2018
7FF8
FFFC
8FE4
9FE4
FFFC
FFFC
6018
6018
6018
ENDCHAR

STARTCHAR S
ENCODING 83
SWIDTH 1376 0
DWIDTH 25 0
BBX 22 11 0 0
BITMAP
FFFFFC
E0001C
900024
8C00C4
838704
827904
840084
880044
900024
A00014
FFFFFC
ENDCHAR

STARTCHAR T
ENCODING 84
SWIDTH 1098 0
DWIDTH 20 0
BBX 15 14 1 0
BITMAP
2290
9462
6EFC
1DF0
3FF0
1FF0
3FB8
3D98
19B0
1CF0
0EF0
0FF0
07F0
1C30
ENDCHAR

STARTCHAR U
ENCODING 85
SWIDTH 992 0
DWIDTH 18 0
BBX 11 15 2 0
BITMAP
0600
0200
2040
1E80
1100
2080
E6A0
3F80
2680
1700
1700
1700
1900
0000
0800
ENDCHAR

STARTCHAR V
ENCODING 86
SWIDTH 1175 0
DWIDTH 21 0
BBX 16 13 0 0
BITMAP
7FE0
4020
4020
4020
4020
4020
7FE0
707C
7FE3
0004
7FE4
8092
FFFB
ENDCHAR

STARTCHAR W
ENCODING 87
SWIDTH 790 0
DWIDTH 14 0
BBX 11 13 0 0
BITMAP
0E00
3180
C060
E0E0
9B20
8620
8220
8220
8220
8220
6240
1380
0E00
ENDCHAR

STARTCHAR X
ENCODING 88
SWIDTH 860 0
DWIDTH 15 0
BBX 11 13 0 0
BITMAP
FFE0
FFE0
FDE0
00E0
0060
0060
0020
0060
0060
00E0
FDE0
FDE0
FFE0
ENDCHAR

STARTCHAR Y
ENCODING 89
SWIDTH 804 0
DWIDTH 14 0
BBX 11 13 0 0
BITMAP
0200
0380
0380
FEC0
FEE0
C060
C060
FEA0
FFC0
0340
0280
0300
0200
ENDCHAR

STARTCHAR Z
ENCODING 90
SWIDTH 1220 0
DWIDTH 22 0
BBX 16 13 0 0
BITMAP
8000
5000
2200
10C0
0818
080E
07FF
07FF
0FF8
1FC0
3E00
7000
C000
ENDCHAR

STARTCHAR bracketleft
ENCODING 91
SWIDTH 1260 0
DWIDTH 23 0
BBX 17 7 0 2
BITMAP
002000
001800
000E00
FFFF80
000E00
001800
002000
ENDCHAR

STARTCHAR backslash
ENCODING 92
SWIDTH 915 0
DWIDTH 16 0
BBX 12 12 1 0
BITMAP
0F00
7FE0
7FE0
7FE0
FFF0
FFF0
FFF0
FFF0
BFE0
FFF0
7F60
0F00
ENDCHAR

STARTCHAR bracketright
ENCODING 93
SWIDTH 1292 0
DWIDTH 23 0
BBX 18 8 0 2
BITMAP
07FFC0
1FFFC0
FFF800
FFFC00
FFFC00
FF7800
FFF800
0F8000
ENDCHAR

STARTCHAR asciicircum
ENCODING 94
SWIDTH 940 0
DWIDTH 17 0
BBX 9 1 4 5
BITMAP
FF80
ENDCHAR

STARTCHAR underscore
ENCODING 95
SWIDTH 1164 0
DWIDTH 21 0
BBX 16 1 2 5
BITMAP
FFFF
ENDCHAR

STARTCHAR grave
ENCODING 96
SWIDTH 720 0
DWIDTH 13 0
BBX 10 9 0 2
BITMAP
3E00
4100
8080
8040
8040
8040
8080
4100
3E00
ENDCHAR

STARTCHAR a
ENCODING 97
SWIDTH 720 0
DWIDTH 13 0
BBX 8 9 2 2
BITMAP
3C
7E
FF
FF
FF
FF
FF
7E
3C
ENDCHAR

STARTCHAR b
ENCODING 98
SWIDTH 1272 0
DWIDTH 23 0
BBX 19 8 1 2
BITMAP
000780
038FC0
E7CFE0
E7DFE0
E7DFE0
038FE0
000FC0
000780
ENDCHAR

STARTCHAR c
ENCODING 99
SWIDTH 556 0
DWIDTH 10 0
BBX 6 13 0 0
BITMAP
C0
F0
F8
F8
FC
FC
FC
FC
FC
F8
F8
F0
C0
ENDCHAR

STARTCHAR d
ENCODING 100
SWIDTH 616 0
DWIDTH 11 0
BBX 7 14 1 0
BITMAP
40
20
18
04
06
02
06
06
06
0E
1C
F8
F0
E0
ENDCHAR

STARTCHAR e
ENCODING 101
SWIDTH 956 0
DWIDTH 17 0
BBX 14 13 0 0
BITMAP
0300
00C0
0030
0008
0004
0018
0030
00E0
01C0
0780
0F00
3E00
FC00
ENDCHAR

STARTCHAR f
ENCODING 102
SWIDTH 932 0
DWIDTH 17 0
BBX 14 13 1 0
BITMAP
0300
0300
0780
0780
0EC0
0EC0
1C60
1C20
3C30
3C10
7818
7808
FFFC
ENDCHAR

STARTCHAR g
ENCODING 103
SWIDTH 956 0
DWIDTH 17 0
BBX 15 10 1 2
BITMAP
0100
0380
07C0
07E0
0FE0
1FF0
3FF8
3FF8
7FFC
FFFE
ENDCHAR

STARTCHAR h
ENCODING 104
SWIDTH 620 0
DWIDTH 11 0
BBX 9 12 1 1
BITMAP
0800
1C00
3E00
7F00
7F00
FF80
FF80
7F00
3E00
3E00
1C00
0C00
ENDCHAR

STARTCHAR i
ENCODING 105
SWIDTH 620 0
DWIDTH 11 0
BBX 9 12 1 1
BITMAP
0800
1C00
3E00
7300
7100
E180
F180
7300
3200
3E00
1C00
0C00
ENDCHAR

STARTCHAR j
ENCODING 106
SWIDTH 1023 0
DWIDTH 18 0
BBX 17 10 1 2
BITMAP
01C000
03E000
0FF800
3FFE00
FFFF00
7FFF80
3FFE00
0FF800
03F000
01C000
ENDCHAR

STARTCHAR k
ENCODING 107
SWIDTH 930 0
DWIDTH 17 0
BBX 12 14 3 0
BITMAP
0200
0200
0200
0700
0F00
1F80
3FE0
FFF0
1FC0
0F80
0700
0600
0200
0200
ENDCHAR

STARTCHAR l
ENCODING 108
SWIDTH 548 0
DWIDTH 10 0
BBX 6 13 1 0
BITMAP
80
C0
E0
F0
F8
FC
FC
F8
F0
F0
E0
C0
80
ENDCHAR

STARTCHAR m
ENCODING 109
SWIDTH 896 0
DWIDTH 16 0
BBX 12 4 1 4
BITMAP
FFF0
7F80
3E00
3000
ENDCHAR

STARTCHAR n
ENCODING 110
SWIDTH 1000 0
DWIDTH 18 0
BBX 15 7 1 3
BITMAP
C000
3C00
07C0
00FE
0070
0380
0400
ENDCHAR

STARTCHAR o
ENCODING 111
SWIDTH 1000 0
DWIDTH 18 0
BBX 17 5 0 4
BITMAP
006000
007000
FFFC00
FFFF00
FFFF80
ENDCHAR

STARTCHAR p
ENCODING 112
SWIDTH 1096 0
DWIDTH 20 0
BBX 18 5 0 3
BITMAP
0FFFC0
1FFF80
3FFF00
7FFF00
FFFE00
ENDCHAR

STARTCHAR q
ENCODING 113
SWIDTH 704 0
DWIDTH 13 0
BBX 11 15 0 0
BITMAP
03A0
07C0
07C0
0FC0
0F80
0E80
1F00
1F00
3F00
3E00
3A00
7C00
7C00
F400
F800
ENDCHAR

STARTCHAR r
ENCODING 114
SWIDTH 1036 0
DWIDTH 19 0
BBX 18 15 0 0
BITMAP
0000C0
0000C0
000180
000180
000380
000300
000700
000700
000E00
000E00
001C00
001C00
003C00
3FF800
FFF800
ENDCHAR

STARTCHAR s
ENCODING 115
SWIDTH 1264 0
DWIDTH 23 0
BBX 20 14 1 0
BITMAP
000010
000020
000020
000060
000060
0000E0
0001E0
0003E0
0007E0
000FE0
001FE0
007FE0
03FFE0
FFFFE0
ENDCHAR

STARTCHAR t
ENCODING 116
SWIDTH 884 0
DWIDTH 16 0
BBX 11 9 1 2
BITMAP
8040
8060
8060
8060
8060
8060
8060
FFE0
3FE0
ENDCHAR

STARTCHAR u
ENCODING 117
SWIDTH 844 0
DWIDTH 15 0
BBX 9 8 1 3
BITMAP
FF80
FF80
FF80
FF80
FF80
FF80
FF80
FF80
ENDCHAR

STARTCHAR v
ENCODING 118
SWIDTH 1176 0
DWIDTH 21 0
BBX 16 7 1 3
BITMAP
FFFF
FFFF
FFFF
FFFF
FFFF
FFFF
FFFF
ENDCHAR

STARTCHAR w
ENCODING 119
SWIDTH 1252 0
DWIDTH 23 0
BBX 18 8 0 2
BITMAP
FFBEC0
FFBEC0
FFBEC0
FFBEC0
FFBEC0
FFBEC0
FFBEC0
FFBEC0
ENDCHAR

STARTCHAR x
ENCODING 120
SWIDTH 1244 0
DWIDTH 22 0
BBX 19 13 0 0
BITMAP
000200
000200
DF7F00
DF7F80
DF7FC0
DF7FC0
DF7FE0
DF7FE0
DF7FC0
DF7F80
000300
000300
000200
ENDCHAR

STARTCHAR y
ENCODING 121
SWIDTH 864 0
DWIDTH 16 0
BBX 12 8 0 2
BITMAP
FFF0
8FF0
8FF0
8FF0
8FF0
8FF0
8FF0
FFF0
ENDCHAR

STARTCHAR z
ENCODING 122
SWIDTH 704 0
DWIDTH 13 0
BBX 9 8 0 2
BITMAP
FF80
8080
8080
8080
8080
8080
8080
FF80
ENDCHAR
ENDFONT
